<?xml version="1.0" encoding="utf-8"?>
<!-- Generator: Adobe Illustrator 25.3.1, SVG Export Plug-In . SVG Version: 6.00 Build 0)  -->
<svg version="1.1" id="圖層_1" xmlns="http://www.w3.org/2000/svg" xmlns:xlink="http://www.w3.org/1999/xlink" x="0px" y="0px"
	 viewBox="0 0 153 50" style="enable-background:new 0 0 153 50;" xml:space="preserve">
<style type="text/css">
	.st0{fill:#0EAA3A;}
</style>
<g>
	<g>
		<path class="st0" d="M153.03,50H0.18V0h152.85V50z M3.46,46.72h146.29V3.28H3.46V46.72z"/>
	</g>
	<path class="st0" d="M49.74,38.49c-3.13,0-4.71-1.86-4.13-5.5l1.2-7.32h-3.47l0.89-5.67h3.44l0.86-5.4h9.04l-0.86,5.4h3.51
		l-0.93,5.67h-3.47l-0.89,5.6c-0.14,0.93,0,1.48,1.24,1.48h2.03l-0.93,5.74H49.74z"/>
	<path class="st0" d="M72.85,39.04c-10.56,0-13-4.88-13-8.7c0-0.52,0.03-1.17,0.1-1.72c0.52-3.95,2.85-9.15,14.44-9.15h2.51
		c10.69,0,12.96,4.5,12.96,8.39c0,0.52-0.03,1.17-0.14,1.89c-0.55,3.82-2.3,9.28-14.41,9.28H72.85z M69.17,29.82
		c0,1.86,1.2,3.92,5.19,3.92h0.03c4.92,0,6.19-2.92,6.19-5.29c0-1.86-1.2-3.75-5.26-3.75h-0.03C70.27,24.7,69.17,27.52,69.17,29.82z
		"/>
	<path class="st0" d="M99.15,38.49h-9.11l2.92-18.5h9.08l-0.55,3.4c0.72-1.07,3.23-3.82,7.63-3.82h0.34c5.95,0,7.22,4.4,6.57,8.53
		l-0.24,1.51h-8.8l0.1-0.65c0.31-1.96-0.28-3.78-2.68-3.78c-2.13,0-3.37,1.48-3.75,3.92L99.15,38.49z"/>
	<path class="st0" d="M131.4,39h-1.75c-10.28,0-12.86-4.3-12.86-8.7c0-0.58,0.03-1.2,0.14-1.89c0.62-4.19,3.3-8.94,14.17-8.94h1.86
		c10.73,0,12.55,4.47,12.55,8.91c0,0.69-0.14,1.79-0.21,2.2h-19.63c0.03,1.86,1.34,3.4,5.02,3.4h0.03c4.23,0,5.12-1.72,5.33-2.23
		h9.04C144.67,34.29,143.19,39,131.4,39z M126.27,26.8h10.42c-0.17-1.72-1.48-2.79-4.92-2.79C128.3,24.01,126.89,25.15,126.27,26.8z
		"/>
	<g>
		<g>
			<path class="st0" d="M6.91,38.47l13.51-13.16L11.31,12.9h11.82l5.22,7.6l4.7-4.68c1.87-1.86,4.41-2.91,7.05-2.91h7.39
				L34.79,25.31l9.18,13.16H32.55l-5.74-8.01l-5.23,5.14c-1.87,1.84-4.39,2.87-7.01,2.87H6.91z"/>
		</g>
	</g>
</g>
</svg>
